@startuml
title 基于GitHub的实验管理平台--类图
class terms {
    <b>term_id</b> （学期ID）
    course_id （课程ID）
    course_name （课程名）
}
class courses {
    <b>course_id</b> （课程ID）
    <b>course_name</b> （课程名）
    test_id（实验ID）
}
class users {
    <b>user_id</b> （用户ID）
    name （用户真实姓名）
    courses (已选课程)
    github_username （用户GitHub账号）
    update_date （用户GitHub账号修改日期）
    password （用户密码）
    disable （用户是否禁用）
}
class teachers{
    <b>teacher_id</b> （老师工号）
    department （老师所属部门）
}
class students{
    <b>student_id</b> （学号）
    class （班级）
    result_sum（成绩汇总）
    web_sum （网站正确与否汇总）
}
users <|- students
users <|-- teachers
class grades {
    <b>student_id</b> （学号）
    <b>test_id</b> （实验编号）
    result （分数）
    memo （评价）
    update_date （评改日期）
}

class tests {
    <b>test_id</b> （实验ID）
    title (实验名称)
    document (文档整体分数 20)
    design (分析设计得分 20)
    ui (界面得分 20)
    integrityi(完成度得分 20)
    uniformity (一致性得分 20)
    total(总分)
}

students "1" -- "n"  grades
tests "1" -- "n"  grades
courses "1" -- "n"  tests
terms "1" -- "n"  courses
terms "1" -- "n"  users

@enduml